<svg version="1.1" viewBox="0.0 0.0 960.0 720.0" fill="none" stroke="none" stroke-linecap="square" stroke-miterlimit="10" xmlns:xlink="http://www.w3.org/1999/xlink" xmlns="http://www.w3.org/2000/svg"><clipPath id="p.0"><path d="m0 0l960.0 0l0 720.0l-960.0 0l0 -720.0z" clip-rule="nonzero"/></clipPath><g clip-path="url(#p.0)"><path fill="#000000" fill-opacity="0.0" d="m0 0l960.0 0l0 720.0l-960.0 0z" fill-rule="evenodd"/><path fill="#000000" fill-opacity="0.0" d="m118.86352 318.9449l259.33856 0l0 148.6614l-259.33856 0z" fill-rule="evenodd"/><path fill="#ffffff" d="m185.36351 354.00113l23.53125 0l0 45.515625q0 6.765625 -2.109375 12.78125q-2.109375 6.015625 -6.609375 10.53125q-4.5 4.5 -9.453125 6.3125q-6.875 2.5625 -16.515625 2.5625q-5.5625 0 -12.15625 -0.78125q-6.59375 -0.78125 -11.015625 -3.09375q-4.421875 -2.328125 -8.09375 -6.59375q-3.671875 -4.28125 -5.03125 -8.8125q-2.1875 -7.28125 -2.1875 -12.90625l0 -45.515625l23.546875 0l0 46.609375q0 6.25 3.453125 9.765625q3.46875 3.515625 9.609375 3.515625q6.09375 0 9.5625 -3.46875q3.46875 -3.46875 3.46875 -9.8125l0 -46.609375zm89.98613 45.15625l20.671875 6.234375q-2.078125 8.703125 -6.5625 14.546875q-4.46875 5.828125 -11.109375 8.796875q-6.640625 2.96875 -16.90625 2.96875q-12.45314 0 -20.343765 -3.625q-7.875 -3.625 -13.609375 -12.734375q-5.734375 -9.109375 -5.734375 -23.328125q0 -18.953125 10.078125 -29.140625q10.078125 -10.1875 28.51564 -10.1875q14.421875 0 22.671875 5.84375q8.265625 5.828125 12.28125 17.90625l-20.84375 4.640625q-1.09375 -3.484375 -2.28125 -5.109375q-1.984375 -2.703125 -4.859375 -4.15625q-2.859375 -1.46875 -6.390625 -1.46875q-8.031265 0 -12.29689 6.46875q-3.234375 4.78125 -3.234375 15.046875q0 12.703125 3.859375 17.421875q3.859375 4.703125 10.82814 4.703125q6.78125 0 10.234375 -3.796875q3.46875 -3.796875 5.03125 -11.03125zm33.070007 -45.15625l23.640625 0l0 76.34375l-23.640625 0l0 -76.34375z" fill-rule="nonzero"/><path fill="#000000" fill-opacity="0.0" d="m362.14172 318.9449l495.02362 0l0 135.74802l-495.02362 0z" fill-rule="evenodd"/><path fill="#ffffff" d="m404.21985 373.13425q-0.09375 0.328125 -0.28125 0.53125q-0.1875 0.1875 -0.515625 0.296875q-0.328125 0.109375 -0.8125 0.15625q-0.484375 0.046875 -1.1875 0.046875q-0.71875 0 -1.234375 -0.046875q-0.5 -0.046875 -0.828125 -0.15625q-0.328125 -0.109375 -0.5 -0.296875q-0.15625 -0.203125 -0.25 -0.53125l-6.34375 -22.90625l-0.046875 0l-5.859375 22.90625q-0.078125 0.328125 -0.25 0.53125q-0.15625 0.1875 -0.46875 0.296875q-0.296875 0.109375 -0.78125 0.15625q-0.46875 0.046875 -1.21875 0.046875q-0.78125 0 -1.296875 -0.046875q-0.515625 -0.046875 -0.84375 -0.15625q-0.328125 -0.109375 -0.5 -0.296875q-0.171875 -0.203125 -0.25 -0.53125l-8.015625 -28.015625q-0.140625 -0.53125 -0.15625 -0.828125q0 -0.3125 0.1875 -0.46875q0.203125 -0.171875 0.640625 -0.21875q0.453125 -0.046875 1.203125 -0.046875q0.734375 0 1.15625 0.03125q0.421875 0.03125 0.640625 0.125q0.21875 0.09375 0.296875 0.265625q0.09375 0.15625 0.140625 0.421875l6.8125 25.40625l0.03125 0l6.46875 -25.359375q0.0625 -0.265625 0.171875 -0.4375q0.109375 -0.171875 0.34375 -0.265625q0.234375 -0.09375 0.65625 -0.140625q0.4375 -0.046875 1.140625 -0.046875q0.65625 0 1.046875 0.046875q0.390625 0.046875 0.625 0.140625q0.234375 0.09375 0.328125 0.265625q0.109375 0.171875 0.1875 0.4375l6.953125 25.359375l0.046875 0l6.6875 -25.390625q0.0625 -0.234375 0.125 -0.40625q0.078125 -0.171875 0.296875 -0.265625q0.234375 -0.09375 0.640625 -0.140625q0.40625 -0.046875 1.09375 -0.046875q0.703125 0 1.109375 0.0625q0.40625 0.046875 0.59375 0.21875q0.1875 0.15625 0.171875 0.46875q0 0.296875 -0.125 0.84375l-8.03125 27.984375zm29.460938 -11.15625q0 0.90625 -0.46875 1.296875q-0.453125 0.390625 -1.03125 0.390625l-13.828125 0q0 1.75 0.34375 3.15625q0.359375 1.40625 1.171875 2.421875q0.828125 1.0 2.140625 1.546875q1.3125 0.53125 3.203125 0.53125q1.5 0 2.671875 -0.234375q1.171875 -0.25 2.03125 -0.546875q0.859375 -0.3125 1.40625 -0.5625q0.546875 -0.25 0.828125 -0.25q0.171875 0 0.296875 0.09375q0.125 0.078125 0.1875 0.25q0.078125 0.15625 0.109375 0.453125q0.046875 0.28125 0.046875 0.703125q0 0.3125 -0.03125 0.53125q-0.015625 0.21875 -0.0625 0.40625q-0.03125 0.171875 -0.109375 0.3125q-0.078125 0.140625 -0.21875 0.265625q-0.125 0.125 -0.765625 0.421875q-0.625 0.296875 -1.640625 0.578125q-1.0 0.28125 -2.328125 0.5q-1.3125 0.234375 -2.8125 0.234375q-2.609375 0 -4.5625 -0.734375q-1.953125 -0.734375 -3.296875 -2.15625q-1.328125 -1.4375 -2.015625 -3.59375q-0.671875 -2.15625 -0.671875 -5.015625q0 -2.71875 0.703125 -4.875q0.703125 -2.171875 2.015625 -3.6875q1.328125 -1.515625 3.203125 -2.3125q1.875 -0.8125 4.203125 -0.8125q2.484375 0 4.21875 0.796875q1.75 0.796875 2.875 2.140625q1.125 1.34375 1.65625 3.171875q0.53125 1.8125 0.53125 3.875l0 0.703125zm-3.890625 -1.15625q0.0625 -3.046875 -1.359375 -4.78125q-1.40625 -1.734375 -4.203125 -1.734375q-1.421875 0 -2.5 0.546875q-1.078125 0.53125 -1.8125 1.421875q-0.71875 0.890625 -1.125 2.078125q-0.390625 1.1875 -0.4375 2.46875l11.4375 0zm29.179688 1.78125q0 2.75 -0.609375 4.9375q-0.59375 2.1875 -1.75 3.734375q-1.15625 1.546875 -2.84375 2.375q-1.6875 0.828125 -3.875 0.828125q-1.0 0 -1.859375 -0.203125q-0.859375 -0.203125 -1.6875 -0.640625q-0.8125 -0.453125 -1.640625 -1.125q-0.8125 -0.6875 -1.71875 -1.65625l0 2.578125q0 0.1875 -0.09375 0.328125q-0.09375 0.140625 -0.3125 0.234375q-0.203125 0.078125 -0.53125 0.125q-0.3125 0.046875 -0.796875 0.046875q-0.46875 0 -0.796875 -0.046875q-0.328125 -0.046875 -0.546875 -0.125q-0.203125 -0.09375 -0.28125 -0.234375q-0.0625 -0.140625 -0.0625 -0.328125l0 -31.3125q0 -0.1875 0.078125 -0.328125q0.078125 -0.140625 0.296875 -0.234375q0.234375 -0.09375 0.609375 -0.140625q0.375 -0.046875 0.9375 -0.046875q0.578125 0 0.953125 0.046875q0.375 0.046875 0.578125 0.140625q0.21875 0.09375 0.3125 0.234375q0.09375 0.140625 0.09375 0.328125l0 12.640625q0.9375 -0.96875 1.8125 -1.625q0.890625 -0.65625 1.734375 -1.0625q0.84375 -0.40625 1.6875 -0.59375q0.84375 -0.1875 1.78125 -0.1875q2.296875 0 3.921875 0.921875q1.625 0.90625 2.640625 2.4375q1.03125 1.53125 1.5 3.59375q0.46875 2.0625 0.46875 4.359375zm-4.078125 0.453125q0 -1.625 -0.25 -3.140625q-0.25 -1.53125 -0.859375 -2.703125q-0.609375 -1.171875 -1.625 -1.875q-1.0 -0.71875 -2.5 -0.71875q-0.75 0 -1.484375 0.21875q-0.71875 0.203125 -1.46875 0.703125q-0.75 0.484375 -1.5625 1.265625q-0.796875 0.765625 -1.71875 1.9375l0 8.40625q1.59375 1.953125 3.046875 2.96875q1.453125 1.015625 3.03125 1.015625q1.453125 0 2.484375 -0.703125q1.03125 -0.703125 1.671875 -1.859375q0.640625 -1.15625 0.9375 -2.59375q0.296875 -1.453125 0.296875 -2.921875zm30.5625 10.359375q0 0.1875 -0.078125 0.328125q-0.0625 0.140625 -0.296875 0.234375q-0.234375 0.09375 -0.65625 0.140625q-0.421875 0.046875 -1.125 0.046875q-0.609375 0 -1.0 -0.046875q-0.390625 -0.046875 -0.625 -0.15625q-0.234375 -0.109375 -0.359375 -0.296875q-0.125 -0.1875 -0.21875 -0.46875l-2.796875 -7.140625q-0.484375 -1.21875 -1.015625 -2.234375q-0.53125 -1.03125 -1.265625 -1.765625q-0.71875 -0.734375 -1.703125 -1.140625q-0.984375 -0.421875 -2.359375 -0.421875l-2.703125 0l0 12.921875q0 0.1875 -0.109375 0.328125q-0.09375 0.140625 -0.328125 0.234375q-0.21875 0.078125 -0.609375 0.125q-0.375 0.0625 -0.96875 0.0625q-0.578125 0 -0.96875 -0.0625q-0.390625 -0.046875 -0.625 -0.125q-0.234375 -0.09375 -0.328125 -0.234375q-0.09375 -0.140625 -0.09375 -0.328125l0 -28.078125q0 -0.921875 0.484375 -1.28125q0.484375 -0.359375 1.015625 -0.359375l6.453125 0q1.140625 0 1.90625 0.0625q0.765625 0.046875 1.375 0.125q1.75 0.296875 3.09375 0.953125q1.359375 0.65625 2.265625 1.671875q0.921875 1.0 1.375 2.3125q0.453125 1.296875 0.453125 2.859375q0 1.53125 -0.40625 2.734375q-0.40625 1.203125 -1.1875 2.140625q-0.765625 0.921875 -1.84375 1.609375q-1.078125 0.671875 -2.421875 1.140625q0.75 0.328125 1.359375 0.828125q0.609375 0.5 1.140625 1.203125q0.53125 0.703125 1.0 1.625q0.46875 0.90625 0.9375 2.0625l2.71875 6.671875q0.328125 0.84375 0.421875 1.1875q0.09375 0.34375 0.09375 0.53125zm-6.078125 -21.3125q0 -1.78125 -0.796875 -3.0q-0.796875 -1.234375 -2.671875 -1.78125q-0.578125 -0.15625 -1.328125 -0.21875q-0.734375 -0.078125 -1.921875 -0.078125l-3.40625 0l0 10.21875l3.9375 0q1.59375 0 2.75 -0.390625q1.171875 -0.390625 1.9375 -1.078125q0.78125 -0.6875 1.140625 -1.625q0.359375 -0.9375 0.359375 -2.046875zm28.625 9.875q0 0.90625 -0.46875 1.296875q-0.453125 0.390625 -1.03125 0.390625l-13.828125 0q0 1.75 0.34375 3.15625q0.359375 1.40625 1.171875 2.421875q0.828125 1.0 2.140625 1.546875q1.3125 0.53125 3.203125 0.53125q1.5 0 2.671875 -0.234375q1.171875 -0.25 2.03125 -0.546875q0.859375 -0.3125 1.40625 -0.5625q0.546875 -0.25 0.828125 -0.25q0.171875 0 0.296875 0.09375q0.125 0.078125 0.1875 0.25q0.078125 0.15625 0.109375 0.453125q0.046875 0.28125 0.046875 0.703125q0 0.3125 -0.03125 0.53125q-0.015625 0.21875 -0.0625 0.40625q-0.03125 0.171875 -0.109375 0.3125q-0.078125 0.140625 -0.21875 0.265625q-0.125 0.125 -0.765625 0.421875q-0.625 0.296875 -1.640625 0.578125q-1.0 0.28125 -2.328125 0.5q-1.3125 0.234375 -2.8125 0.234375q-2.609375 0 -4.5625 -0.734375q-1.953125 -0.734375 -3.296875 -2.15625q-1.328125 -1.4375 -2.015625 -3.59375q-0.671875 -2.15625 -0.671875 -5.015625q0 -2.71875 0.703125 -4.875q0.703125 -2.171875 2.015625 -3.6875q1.328125 -1.515625 3.203125 -2.3125q1.875 -0.8125 4.203125 -0.8125q2.484375 0 4.21875 0.796875q1.75 0.796875 2.875 2.140625q1.125 1.34375 1.65625 3.171875q0.53125 1.8125 0.53125 3.875l0 0.703125zm-3.890625 -1.15625q0.0625 -3.046875 -1.359375 -4.78125q-1.40625 -1.734375 -4.203125 -1.734375q-1.421875 0 -2.5 0.546875q-1.078125 0.53125 -1.8125 1.421875q-0.71875 0.890625 -1.125 2.078125q-0.390625 1.1875 -0.4375 2.46875l11.4375 0zm27.398438 -7.515625q0 0.8125 -0.234375 1.1875q-0.21875 0.359375 -0.5625 0.359375l-3.03125 0q0.828125 0.84375 1.15625 1.859375q0.328125 1.015625 0.328125 2.125q0 1.828125 -0.59375 3.234375q-0.578125 1.40625 -1.671875 2.375q-1.09375 0.96875 -2.59375 1.484375q-1.5 0.515625 -3.328125 0.515625q-1.28125 0 -2.453125 -0.328125q-1.15625 -0.34375 -1.78125 -0.859375q-0.421875 0.421875 -0.703125 0.96875q-0.265625 0.53125 -0.265625 1.234375q0 0.8125 0.765625 1.359375q0.765625 0.53125 2.03125 0.578125l5.5 0.234375q1.578125 0.046875 2.890625 0.4375q1.3125 0.390625 2.265625 1.109375q0.96875 0.703125 1.5 1.75q0.546875 1.046875 0.546875 2.4375q0 1.453125 -0.609375 2.765625q-0.609375 1.3125 -1.875 2.296875q-1.25 1.0 -3.203125 1.578125q-1.9375 0.578125 -4.578125 0.578125q-2.5625 0 -4.359375 -0.4375q-1.78125 -0.4375 -2.9375 -1.1875q-1.140625 -0.75 -1.65625 -1.796875q-0.515625 -1.03125 -0.515625 -2.25q0 -0.78125 0.1875 -1.515625q0.1875 -0.71875 0.5625 -1.375q0.390625 -0.65625 0.96875 -1.25q0.578125 -0.609375 1.328125 -1.1875q-1.15625 -0.59375 -1.703125 -1.484375q-0.546875 -0.890625 -0.546875 -1.921875q0 -1.421875 0.578125 -2.546875q0.59375 -1.125 1.453125 -2.015625q-0.71875 -0.875 -1.140625 -1.953125q-0.421875 -1.09375 -0.421875 -2.640625q0 -1.8125 0.609375 -3.234375q0.609375 -1.4375 1.6875 -2.421875q1.078125 -0.984375 2.578125 -1.5q1.515625 -0.53125 3.296875 -0.53125q0.96875 0 1.796875 0.109375q0.828125 0.09375 1.5625 0.28125l6.375 0q0.390625 0 0.59375 0.390625q0.203125 0.390625 0.203125 1.1875zm-6.046875 5.546875q0 -2.15625 -1.1875 -3.359375q-1.1875 -1.203125 -3.359375 -1.203125q-1.125 0 -1.96875 0.375q-0.828125 0.375 -1.375 1.03125q-0.546875 0.65625 -0.828125 1.515625q-0.265625 0.84375 -0.265625 1.78125q0 2.09375 1.1875 3.296875q1.1875 1.1875 3.3125 1.1875q1.15625 0 2.0 -0.359375q0.84375 -0.375 1.390625 -1.015625q0.546875 -0.640625 0.8125 -1.484375q0.28125 -0.84375 0.28125 -1.765625zm1.9375 16.71875q0 -1.359375 -1.109375 -2.09375q-1.109375 -0.75 -3.015625 -0.796875l-5.453125 -0.1875q-0.75 0.59375 -1.234375 1.125q-0.484375 0.53125 -0.765625 1.0q-0.28125 0.484375 -0.390625 0.953125q-0.09375 0.46875 -0.09375 0.96875q0 1.515625 1.546875 2.296875q1.546875 0.796875 4.3125 0.796875q1.75 0 2.9375 -0.34375q1.1875 -0.34375 1.90625 -0.90625q0.734375 -0.5625 1.046875 -1.296875q0.3125 -0.71875 0.3125 -1.515625z" fill-rule="nonzero"/><path fill="#ffffff" d="m397.98547 420.42175q0 2.765625 -0.8125 4.9375q-0.8125 2.15625 -2.3125 3.65625q-1.5 1.5 -3.65625 2.28125q-2.15625 0.78125 -4.890625 0.78125q-2.515625 0 -4.578125 -0.734375q-2.0625 -0.734375 -3.546875 -2.140625q-1.46875 -1.421875 -2.265625 -3.546875q-0.796875 -2.140625 -0.796875 -4.9375l0 -18.8125q0 -0.1875 0.09375 -0.328125q0.09375 -0.140625 0.328125 -0.21875q0.234375 -0.09375 0.609375 -0.140625q0.375 -0.0625 0.984375 -0.0625q0.5625 0 0.953125 0.0625q0.40625 0.046875 0.625 0.140625q0.234375 0.078125 0.328125 0.21875q0.09375 0.140625 0.09375 0.328125l0 18.328125q0 2.109375 0.515625 3.6875q0.515625 1.5625 1.484375 2.609375q0.96875 1.03125 2.34375 1.5625q1.375 0.53125 3.078125 0.53125q1.765625 0 3.125 -0.515625q1.375 -0.515625 2.328125 -1.546875q0.953125 -1.03125 1.453125 -2.546875q0.5 -1.53125 0.5 -3.578125l0 -18.53125q0 -0.1875 0.09375 -0.328125q0.09375 -0.140625 0.328125 -0.21875q0.234375 -0.09375 0.625 -0.140625q0.390625 -0.0625 0.96875 -0.0625q0.5625 0 0.953125 0.0625q0.390625 0.046875 0.609375 0.140625q0.21875 0.078125 0.328125 0.21875q0.109375 0.140625 0.109375 0.328125l0 18.515625zm25.703125 10.609375q0 0.1875 -0.09375 0.328125q-0.09375 0.125 -0.3125 0.21875q-0.203125 0.09375 -0.578125 0.140625q-0.375 0.046875 -0.9375 0.046875q-0.578125 0 -0.953125 -0.046875q-0.375 -0.046875 -0.59375 -0.140625q-0.203125 -0.09375 -0.296875 -0.21875q-0.09375 -0.140625 -0.09375 -0.328125l0 -12.34375q0 -1.8125 -0.28125 -2.90625q-0.28125 -1.109375 -0.828125 -1.90625q-0.53125 -0.796875 -1.390625 -1.21875q-0.859375 -0.421875 -1.984375 -0.421875q-1.453125 0 -2.90625 1.03125q-1.453125 1.03125 -3.046875 3.03125l0 14.734375q0 0.1875 -0.09375 0.328125q-0.09375 0.125 -0.3125 0.21875q-0.203125 0.09375 -0.578125 0.140625q-0.375 0.046875 -0.953125 0.046875q-0.5625 0 -0.9375 -0.046875q-0.375 -0.046875 -0.609375 -0.140625q-0.21875 -0.09375 -0.296875 -0.21875q-0.078125 -0.140625 -0.078125 -0.328125l0 -21.09375q0 -0.1875 0.0625 -0.3125q0.078125 -0.125 0.28125 -0.234375q0.21875 -0.109375 0.546875 -0.140625q0.328125 -0.03125 0.859375 -0.03125q0.515625 0 0.859375 0.03125q0.34375 0.03125 0.53125 0.140625q0.1875 0.109375 0.265625 0.234375q0.078125 0.125 0.078125 0.3125l0 2.796875q1.78125 -2.0 3.546875 -2.921875q1.78125 -0.921875 3.578125 -0.921875q2.109375 0 3.546875 0.71875q1.453125 0.703125 2.34375 1.90625q0.890625 1.1875 1.265625 2.796875q0.390625 1.609375 0.390625 3.859375l0 12.859375zm10.921875 0q0 0.1875 -0.09375 0.328125q-0.09375 0.125 -0.3125 0.21875q-0.203125 0.09375 -0.578125 0.140625q-0.375 0.046875 -0.953125 0.046875q-0.5625 0 -0.9375 -0.046875q-0.375 -0.046875 -0.609375 -0.140625q-0.21875 -0.09375 -0.296875 -0.21875q-0.078125 -0.140625 -0.078125 -0.328125l0 -21.09375q0 -0.15625 0.078125 -0.296875q0.078125 -0.140625 0.296875 -0.234375q0.234375 -0.09375 0.609375 -0.140625q0.375 -0.046875 0.9375 -0.046875q0.578125 0 0.953125 0.046875q0.375 0.046875 0.578125 0.140625q0.21875 0.09375 0.3125 0.234375q0.09375 0.140625 0.09375 0.296875l0 21.09375zm0.453125 -28.21875q0 1.359375 -0.515625 1.859375q-0.515625 0.484375 -1.90625 0.484375q-1.359375 0 -1.859375 -0.46875q-0.5 -0.484375 -0.5 -1.828125q0 -1.359375 0.515625 -1.84375q0.515625 -0.5 1.890625 -0.5q1.359375 0 1.859375 0.484375q0.515625 0.484375 0.515625 1.8125zm24.0 7.078125q0 0.09375 -0.015625 0.203125q-0.015625 0.109375 -0.046875 0.234375q-0.015625 0.109375 -0.046875 0.25q-0.03125 0.140625 -0.078125 0.296875l-7.203125 20.046875q-0.09375 0.25 -0.25 0.421875q-0.140625 0.15625 -0.453125 0.265625q-0.296875 0.09375 -0.765625 0.125q-0.46875 0.03125 -1.171875 0.03125q-0.703125 0 -1.171875 -0.046875q-0.46875 -0.046875 -0.765625 -0.140625q-0.296875 -0.09375 -0.46875 -0.25q-0.15625 -0.171875 -0.25 -0.40625l-7.171875 -20.046875q-0.09375 -0.28125 -0.15625 -0.484375q-0.046875 -0.21875 -0.0625 -0.3125q-0.015625 -0.109375 -0.015625 -0.1875q0 -0.1875 0.09375 -0.328125q0.09375 -0.140625 0.3125 -0.21875q0.234375 -0.078125 0.59375 -0.09375q0.359375 -0.03125 0.90625 -0.03125q0.671875 0 1.078125 0.03125q0.421875 0.03125 0.640625 0.125q0.21875 0.09375 0.328125 0.234375q0.109375 0.140625 0.203125 0.359375l5.953125 17.390625l0.09375 0.28125l0.0625 -0.28125l5.890625 -17.390625q0.046875 -0.21875 0.15625 -0.359375q0.125 -0.140625 0.34375 -0.234375q0.21875 -0.09375 0.609375 -0.125q0.390625 -0.03125 1.015625 -0.03125q0.546875 0 0.890625 0.03125q0.359375 0.015625 0.546875 0.109375q0.203125 0.09375 0.28125 0.21875q0.09375 0.125 0.09375 0.3125zm21.914062 9.6875q0 0.90625 -0.46875 1.296875q-0.453125 0.390625 -1.03125 0.390625l-13.828125 0q0 1.75 0.34375 3.15625q0.359375 1.40625 1.171875 2.421875q0.828125 1.0 2.140625 1.546875q1.3125 0.53125 3.203125 0.53125q1.5 0 2.671875 -0.234375q1.171875 -0.25 2.03125 -0.546875q0.859375 -0.3125 1.40625 -0.5625q0.546875 -0.25 0.828125 -0.25q0.171875 0 0.296875 0.09375q0.125 0.078125 0.1875 0.25q0.078125 0.15625 0.109375 0.453125q0.046875 0.28125 0.046875 0.703125q0 0.3125 -0.03125 0.53125q-0.015625 0.21875 -0.0625 0.40625q-0.03125 0.171875 -0.109375 0.3125q-0.078125 0.140625 -0.21875 0.265625q-0.125 0.125 -0.765625 0.421875q-0.625 0.296875 -1.640625 0.578125q-1.0 0.28125 -2.328125 0.5q-1.3125 0.234375 -2.8125 0.234375q-2.609375 0 -4.5625 -0.734375q-1.953125 -0.734375 -3.296875 -2.15625q-1.328125 -1.4375 -2.015625 -3.59375q-0.671875 -2.15625 -0.671875 -5.015625q0 -2.71875 0.703125 -4.875q0.703125 -2.171875 2.015625 -3.6875q1.328125 -1.515625 3.203125 -2.3125q1.875 -0.8125 4.203125 -0.8125q2.484375 0 4.21875 0.796875q1.75 0.796875 2.875 2.140625q1.125 1.34375 1.65625 3.171875q0.53125 1.8125 0.53125 3.875l0 0.703125zm-3.890625 -1.15625q0.0625 -3.046875 -1.359375 -4.78125q-1.40625 -1.734375 -4.203125 -1.734375q-1.421875 0 -2.5 0.546875q-1.078125 0.53125 -1.8125 1.421875q-0.71875 0.890625 -1.125 2.078125q-0.390625 1.1875 -0.4375 2.46875l11.4375 0zm22.101562 -7.09375q0 0.515625 -0.03125 0.875q-0.015625 0.34375 -0.09375 0.546875q-0.0625 0.1875 -0.171875 0.296875q-0.109375 0.109375 -0.296875 0.109375q-0.1875 0 -0.453125 -0.109375q-0.265625 -0.109375 -0.609375 -0.203125q-0.34375 -0.109375 -0.765625 -0.203125q-0.421875 -0.09375 -0.90625 -0.09375q-0.59375 0 -1.15625 0.234375q-0.5625 0.234375 -1.1875 0.78125q-0.609375 0.53125 -1.296875 1.421875q-0.671875 0.890625 -1.5 2.171875l0 13.875q0 0.1875 -0.09375 0.328125q-0.09375 0.125 -0.3125 0.21875q-0.203125 0.09375 -0.578125 0.140625q-0.375 0.046875 -0.953125 0.046875q-0.5625 0 -0.9375 -0.046875q-0.375 -0.046875 -0.609375 -0.140625q-0.21875 -0.09375 -0.296875 -0.21875q-0.078125 -0.140625 -0.078125 -0.328125l0 -21.09375q0 -0.1875 0.0625 -0.3125q0.078125 -0.125 0.28125 -0.234375q0.21875 -0.109375 0.546875 -0.140625q0.328125 -0.03125 0.859375 -0.03125q0.515625 0 0.859375 0.03125q0.34375 0.03125 0.53125 0.140625q0.1875 0.109375 0.265625 0.234375q0.078125 0.125 0.078125 0.3125l0 3.078125q0.875 -1.265625 1.625 -2.0625q0.765625 -0.796875 1.4375 -1.25q0.6875 -0.46875 1.359375 -0.640625q0.671875 -0.171875 1.34375 -0.171875q0.3125 0 0.6875 0.03125q0.390625 0.03125 0.8125 0.125q0.421875 0.09375 0.765625 0.21875q0.34375 0.109375 0.484375 0.234375q0.140625 0.109375 0.1875 0.21875q0.046875 0.109375 0.078125 0.28125q0.03125 0.15625 0.046875 0.46875q0.015625 0.3125 0.015625 0.859375zm16.820312 13.96875q0 1.609375 -0.59375 2.875q-0.59375 1.265625 -1.703125 2.140625q-1.09375 0.859375 -2.625 1.3125q-1.515625 0.453125 -3.34375 0.453125q-1.125 0 -2.15625 -0.1875q-1.015625 -0.171875 -1.828125 -0.4375q-0.796875 -0.28125 -1.359375 -0.5625q-0.5625 -0.296875 -0.828125 -0.53125q-0.25 -0.234375 -0.375 -0.65625q-0.109375 -0.421875 -0.109375 -1.15625q0 -0.4375 0.046875 -0.734375q0.046875 -0.3125 0.109375 -0.5q0.078125 -0.1875 0.203125 -0.265625q0.125 -0.09375 0.296875 -0.09375q0.25 0 0.75 0.328125q0.515625 0.3125 1.25 0.6875q0.734375 0.375 1.734375 0.6875q1.015625 0.3125 2.328125 0.3125q0.984375 0 1.78125 -0.203125q0.796875 -0.21875 1.375 -0.625q0.59375 -0.40625 0.90625 -1.03125q0.328125 -0.640625 0.328125 -1.515625q0 -0.890625 -0.46875 -1.5q-0.453125 -0.609375 -1.203125 -1.078125q-0.75 -0.46875 -1.6875 -0.828125q-0.9375 -0.359375 -1.9375 -0.75q-0.984375 -0.40625 -1.9375 -0.90625q-0.953125 -0.515625 -1.703125 -1.234375q-0.75 -0.734375 -1.203125 -1.734375q-0.453125 -1.015625 -0.453125 -2.421875q0 -1.234375 0.46875 -2.375q0.484375 -1.140625 1.4375 -1.984375q0.96875 -0.859375 2.40625 -1.375q1.453125 -0.515625 3.375 -0.515625q0.84375 0 1.6875 0.140625q0.84375 0.140625 1.515625 0.359375q0.6875 0.203125 1.15625 0.453125q0.484375 0.234375 0.734375 0.421875q0.25 0.1875 0.328125 0.328125q0.078125 0.140625 0.109375 0.328125q0.046875 0.171875 0.078125 0.4375q0.03125 0.25 0.03125 0.625q0 0.390625 -0.03125 0.6875q-0.03125 0.296875 -0.125 0.484375q-0.078125 0.1875 -0.203125 0.265625q-0.109375 0.078125 -0.25 0.078125q-0.203125 0 -0.609375 -0.25q-0.390625 -0.265625 -1.03125 -0.546875q-0.625 -0.296875 -1.484375 -0.546875q-0.859375 -0.265625 -1.953125 -0.265625q-0.984375 0 -1.734375 0.21875q-0.75 0.21875 -1.234375 0.640625q-0.484375 0.40625 -0.734375 0.96875q-0.234375 0.5625 -0.234375 1.21875q0 0.90625 0.46875 1.53125q0.46875 0.625 1.21875 1.09375q0.75 0.46875 1.703125 0.84375q0.96875 0.375 1.953125 0.78125q1.0 0.390625 1.96875 0.890625q0.984375 0.484375 1.734375 1.1875q0.75 0.703125 1.203125 1.6875q0.453125 0.984375 0.453125 2.34375zm9.3984375 5.734375q0 0.1875 -0.09375 0.328125q-0.09375 0.125 -0.3125 0.21875q-0.203125 0.09375 -0.578125 0.140625q-0.375 0.046875 -0.953125 0.046875q-0.5625 0 -0.9375 -0.046875q-0.375 -0.046875 -0.609375 -0.140625q-0.21875 -0.09375 -0.296875 -0.21875q-0.078125 -0.140625 -0.078125 -0.328125l0 -21.09375q0 -0.15625 0.078125 -0.296875q0.078125 -0.140625 0.296875 -0.234375q0.234375 -0.09375 0.609375 -0.140625q0.375 -0.046875 0.9375 -0.046875q0.578125 0 0.953125 0.046875q0.375 0.046875 0.578125 0.140625q0.21875 0.09375 0.3125 0.234375q0.09375 0.140625 0.09375 0.296875l0 21.09375zm0.453125 -28.21875q0 1.359375 -0.515625 1.859375q-0.515625 0.484375 -1.90625 0.484375q-1.359375 0 -1.859375 -0.46875q-0.5 -0.484375 -0.5 -1.828125q0 -1.359375 0.515625 -1.84375q0.515625 -0.5 1.890625 -0.5q1.359375 0 1.859375 0.484375q0.515625 0.484375 0.515625 1.8125zm17.671875 26.671875q0 0.6875 -0.09375 1.09375q-0.09375 0.390625 -0.28125 0.578125q-0.1875 0.1875 -0.5625 0.359375q-0.375 0.15625 -0.859375 0.265625q-0.484375 0.109375 -1.03125 0.171875q-0.53125 0.078125 -1.0625 0.078125q-1.640625 0 -2.8125 -0.4375q-1.171875 -0.4375 -1.921875 -1.3125q-0.75 -0.890625 -1.09375 -2.234375q-0.34375 -1.34375 -0.34375 -3.171875l0 -12.328125l-2.953125 0q-0.34375 0 -0.5625 -0.375q-0.203125 -0.375 -0.203125 -1.21875q0 -0.453125 0.046875 -0.75q0.0625 -0.3125 0.15625 -0.5q0.09375 -0.203125 0.25 -0.28125q0.15625 -0.09375 0.34375 -0.09375l2.921875 0l0 -5.015625q0 -0.15625 0.078125 -0.296875q0.09375 -0.140625 0.3125 -0.25q0.21875 -0.109375 0.59375 -0.15625q0.375 -0.046875 0.9375 -0.046875q0.59375 0 0.96875 0.046875q0.375 0.046875 0.578125 0.15625q0.21875 0.109375 0.3125 0.25q0.09375 0.140625 0.09375 0.296875l0 5.015625l5.40625 0q0.1875 0 0.328125 0.09375q0.140625 0.078125 0.25 0.28125q0.109375 0.1875 0.15625 0.5q0.046875 0.296875 0.046875 0.75q0 0.84375 -0.21875 1.21875q-0.203125 0.375 -0.5625 0.375l-5.40625 0l0 11.765625q0 2.171875 0.640625 3.296875q0.640625 1.109375 2.3125 1.109375q0.53125 0 0.953125 -0.109375q0.421875 -0.109375 0.75 -0.21875q0.328125 -0.125 0.5625 -0.21875q0.234375 -0.109375 0.421875 -0.109375q0.125 0 0.21875 0.0625q0.109375 0.046875 0.171875 0.21875q0.0625 0.15625 0.109375 0.4375q0.046875 0.28125 0.046875 0.703125zm14.71875 2.140625l-2.8125 7.765625q-0.140625 0.375 -0.71875 0.5625q-0.578125 0.203125 -1.75 0.203125q-0.609375 0 -0.984375 -0.0625q-0.375 -0.046875 -0.578125 -0.1875q-0.1875 -0.140625 -0.21875 -0.375q-0.015625 -0.234375 0.125 -0.5625l2.90625 -7.34375q-0.21875 -0.09375 -0.40625 -0.296875q-0.1875 -0.21875 -0.25 -0.453125l-7.53125 -20.15625q-0.1875 -0.5 -0.1875 -0.78125q0 -0.28125 0.1875 -0.4375q0.1875 -0.171875 0.609375 -0.21875q0.421875 -0.0625 1.125 -0.0625q0.703125 0 1.09375 0.03125q0.40625 0.03125 0.640625 0.125q0.234375 0.09375 0.34375 0.28125q0.109375 0.171875 0.21875 0.46875l6.03125 16.921875l0.0625 0l5.8125 -17.015625q0.140625 -0.4375 0.34375 -0.5625q0.203125 -0.140625 0.59375 -0.1875q0.40625 -0.0625 1.15625 -0.0625q0.65625 0 1.078125 0.0625q0.421875 0.046875 0.609375 0.21875q0.203125 0.15625 0.203125 0.4375q0 0.28125 -0.140625 0.703125l-7.5625 20.984375zm43.640625 -0.609375q0 0.1875 -0.078125 0.328125q-0.0625 0.140625 -0.296875 0.234375q-0.234375 0.09375 -0.65625 0.140625q-0.421875 0.046875 -1.125 0.046875q-0.609375 0 -1.0 -0.046875q-0.390625 -0.046875 -0.625 -0.15625q-0.234375 -0.109375 -0.359375 -0.296875q-0.125 -0.1875 -0.21875 -0.46875l-2.796875 -7.140625q-0.484375 -1.21875 -1.015625 -2.234375q-0.53125 -1.03125 -1.265625 -1.765625q-0.71875 -0.734375 -1.703125 -1.140625q-0.984375 -0.421875 -2.359375 -0.421875l-2.703125 0l0 12.921875q0 0.1875 -0.109375 0.328125q-0.09375 0.140625 -0.328125 0.234375q-0.21875 0.078125 -0.609375 0.125q-0.375 0.0625 -0.96875 0.0625q-0.578125 0 -0.96875 -0.0625q-0.390625 -0.046875 -0.625 -0.125q-0.234375 -0.09375 -0.328125 -0.234375q-0.09375 -0.140625 -0.09375 -0.328125l0 -28.078125q0 -0.921875 0.484375 -1.28125q0.484375 -0.359375 1.015625 -0.359375l6.453125 0q1.140625 0 1.90625 0.0625q0.765625 0.046875 1.375 0.125q1.75 0.296875 3.09375 0.953125q1.359375 0.65625 2.265625 1.671875q0.921875 1.0 1.375 2.3125q0.453125 1.296875 0.453125 2.859375q0 1.53125 -0.40625 2.734375q-0.40625 1.203125 -1.1875 2.140625q-0.765625 0.921875 -1.84375 1.609375q-1.078125 0.671875 -2.421875 1.140625q0.75 0.328125 1.359375 0.828125q0.609375 0.5 1.140625 1.203125q0.53125 0.703125 1.0 1.625q0.46875 0.90625 0.9375 2.0625l2.71875 6.671875q0.328125 0.84375 0.421875 1.1875q0.09375 0.34375 0.09375 0.53125zm-6.078125 -21.3125q0 -1.78125 -0.796875 -3.0q-0.796875 -1.234375 -2.671875 -1.78125q-0.578125 -0.15625 -1.328125 -0.21875q-0.734375 -0.078125 -1.921875 -0.078125l-3.40625 0l0 10.21875l3.9375 0q1.59375 0 2.75 -0.390625q1.171875 -0.390625 1.9375 -1.078125q0.78125 -0.6875 1.140625 -1.625q0.359375 -0.9375 0.359375 -2.046875zm28.625 9.875q0 0.90625 -0.46875 1.296875q-0.453125 0.390625 -1.03125 0.390625l-13.828125 0q0 1.75 0.34375 3.15625q0.359375 1.40625 1.171875 2.421875q0.828125 1.0 2.140625 1.546875q1.3125 0.53125 3.203125 0.53125q1.5 0 2.671875 -0.234375q1.171875 -0.25 2.03125 -0.546875q0.859375 -0.3125 1.40625 -0.5625q0.546875 -0.25 0.828125 -0.25q0.171875 0 0.296875 0.09375q0.125 0.078125 0.1875 0.25q0.078125 0.15625 0.109375 0.453125q0.046875 0.28125 0.046875 0.703125q0 0.3125 -0.03125 0.53125q-0.015625 0.21875 -0.0625 0.40625q-0.03125 0.171875 -0.109375 0.3125q-0.078125 0.140625 -0.21875 0.265625q-0.125 0.125 -0.765625 0.421875q-0.625 0.296875 -1.640625 0.578125q-1.0 0.28125 -2.328125 0.5q-1.3125 0.234375 -2.8125 0.234375q-2.609375 0 -4.5625 -0.734375q-1.953125 -0.734375 -3.296875 -2.15625q-1.328125 -1.4375 -2.015625 -3.59375q-0.671875 -2.15625 -0.671875 -5.015625q0 -2.71875 0.703125 -4.875q0.703125 -2.171875 2.015625 -3.6875q1.328125 -1.515625 3.203125 -2.3125q1.875 -0.8125 4.203125 -0.8125q2.484375 0 4.21875 0.796875q1.75 0.796875 2.875 2.140625q1.125 1.34375 1.65625 3.171875q0.53125 1.8125 0.53125 3.875l0 0.703125zm-3.890625 -1.15625q0.0625 -3.046875 -1.359375 -4.78125q-1.40625 -1.734375 -4.203125 -1.734375q-1.421875 0 -2.5 0.546875q-1.078125 0.53125 -1.8125 1.421875q-0.71875 0.890625 -1.125 2.078125q-0.390625 1.1875 -0.4375 2.46875l11.4375 0zm27.398438 -7.515625q0 0.8125 -0.234375 1.1875q-0.21875 0.359375 -0.5625 0.359375l-3.03125 0q0.828125 0.84375 1.15625 1.859375q0.328125 1.015625 0.328125 2.125q0 1.828125 -0.59375 3.234375q-0.578125 1.40625 -1.671875 2.375q-1.09375 0.96875 -2.59375 1.484375q-1.5 0.515625 -3.328125 0.515625q-1.28125 0 -2.453125 -0.328125q-1.15625 -0.34375 -1.78125 -0.859375q-0.421875 0.421875 -0.703125 0.96875q-0.265625 0.53125 -0.265625 1.234375q0 0.8125 0.765625 1.359375q0.765625 0.53125 2.03125 0.578125l5.5 0.234375q1.578125 0.046875 2.890625 0.4375q1.3125 0.390625 2.265625 1.109375q0.96875 0.703125 1.5 1.75q0.546875 1.046875 0.546875 2.4375q0 1.453125 -0.609375 2.765625q-0.609375 1.3125 -1.875 2.296875q-1.25 1.0 -3.203125 1.578125q-1.9375 0.578125 -4.578125 0.578125q-2.5625 0 -4.359375 -0.4375q-1.78125 -0.4375 -2.9375 -1.1875q-1.140625 -0.75 -1.65625 -1.796875q-0.515625 -1.03125 -0.515625 -2.25q0 -0.78125 0.1875 -1.515625q0.1875 -0.71875 0.5625 -1.375q0.390625 -0.65625 0.96875 -1.25q0.578125 -0.609375 1.328125 -1.1875q-1.15625 -0.59375 -1.703125 -1.484375q-0.546875 -0.890625 -0.546875 -1.921875q0 -1.421875 0.578125 -2.546875q0.59375 -1.125 1.453125 -2.015625q-0.71875 -0.875 -1.140625 -1.953125q-0.421875 -1.09375 -0.421875 -2.640625q0 -1.8125 0.609375 -3.234375q0.609375 -1.4375 1.6875 -2.421875q1.078125 -0.984375 2.578125 -1.5q1.515625 -0.53125 3.296875 -0.53125q0.96875 0 1.796875 0.109375q0.828125 0.09375 1.5625 0.28125l6.375 0q0.390625 0 0.59375 0.390625q0.203125 0.390625 0.203125 1.1875zm-6.046875 5.546875q0 -2.15625 -1.1875 -3.359375q-1.1875 -1.203125 -3.359375 -1.203125q-1.125 0 -1.96875 0.375q-0.828125 0.375 -1.375 1.03125q-0.546875 0.65625 -0.828125 1.515625q-0.265625 0.84375 -0.265625 1.78125q0 2.09375 1.1875 3.296875q1.1875 1.1875 3.3125 1.1875q1.15625 0 2.0 -0.359375q0.84375 -0.375 1.390625 -1.015625q0.546875 -0.640625 0.8125 -1.484375q0.28125 -0.84375 0.28125 -1.765625zm1.9375 16.71875q0 -1.359375 -1.109375 -2.09375q-1.109375 -0.75 -3.015625 -0.796875l-5.453125 -0.1875q-0.75 0.59375 -1.234375 1.125q-0.484375 0.53125 -0.765625 1.0q-0.28125 0.484375 -0.390625 0.953125q-0.09375 0.46875 -0.09375 0.96875q0 1.515625 1.546875 2.296875q1.546875 0.796875 4.3125 0.796875q1.75 0 2.9375 -0.34375q1.1875 -0.34375 1.90625 -0.90625q0.734375 -0.5625 1.046875 -1.296875q0.3125 -0.71875 0.3125 -1.515625zm12.9375 -2.140625q0 0.1875 -0.09375 0.328125q-0.09375 0.125 -0.3125 0.21875q-0.203125 0.09375 -0.578125 0.140625q-0.375 0.046875 -0.953125 0.046875q-0.5625 0 -0.9375 -0.046875q-0.375 -0.046875 -0.609375 -0.140625q-0.21875 -0.09375 -0.296875 -0.21875q-0.078125 -0.140625 -0.078125 -0.328125l0 -21.09375q0 -0.15625 0.078125 -0.296875q0.078125 -0.140625 0.296875 -0.234375q0.234375 -0.09375 0.609375 -0.140625q0.375 -0.046875 0.9375 -0.046875q0.578125 0 0.953125 0.046875q0.375 0.046875 0.578125 0.140625q0.21875 0.09375 0.3125 0.234375q0.09375 0.140625 0.09375 0.296875l0 21.09375zm0.453125 -28.21875q0 1.359375 -0.515625 1.859375q-0.515625 0.484375 -1.90625 0.484375q-1.359375 0 -1.859375 -0.46875q-0.5 -0.484375 -0.5 -1.828125q0 -1.359375 0.515625 -1.84375q0.515625 -0.5 1.890625 -0.5q1.359375 0 1.859375 0.484375q0.515625 0.484375 0.515625 1.8125zm19.9375 22.484375q0 1.609375 -0.59375 2.875q-0.59375 1.265625 -1.703125 2.140625q-1.09375 0.859375 -2.625 1.3125q-1.515625 0.453125 -3.34375 0.453125q-1.125 0 -2.15625 -0.1875q-1.015625 -0.171875 -1.828125 -0.4375q-0.796875 -0.28125 -1.359375 -0.5625q-0.5625 -0.296875 -0.828125 -0.53125q-0.25 -0.234375 -0.375 -0.65625q-0.109375 -0.421875 -0.109375 -1.15625q0 -0.4375 0.046875 -0.734375q0.046875 -0.3125 0.109375 -0.5q0.078125 -0.1875 0.203125 -0.265625q0.125 -0.09375 0.296875 -0.09375q0.25 0 0.75 0.328125q0.515625 0.3125 1.25 0.6875q0.734375 0.375 1.734375 0.6875q1.015625 0.3125 2.328125 0.3125q0.984375 0 1.78125 -0.203125q0.796875 -0.21875 1.375 -0.625q0.59375 -0.40625 0.90625 -1.03125q0.328125 -0.640625 0.328125 -1.515625q0 -0.890625 -0.46875 -1.5q-0.453125 -0.609375 -1.203125 -1.078125q-0.75 -0.46875 -1.6875 -0.828125q-0.9375 -0.359375 -1.9375 -0.75q-0.984375 -0.40625 -1.9375 -0.90625q-0.953125 -0.515625 -1.703125 -1.234375q-0.75 -0.734375 -1.203125 -1.734375q-0.453125 -1.015625 -0.453125 -2.421875q0 -1.234375 0.46875 -2.375q0.484375 -1.140625 1.4375 -1.984375q0.96875 -0.859375 2.40625 -1.375q1.453125 -0.515625 3.375 -0.515625q0.84375 0 1.6875 0.140625q0.84375 0.140625 1.515625 0.359375q0.6875 0.203125 1.15625 0.453125q0.484375 0.234375 0.734375 0.421875q0.25 0.1875 0.328125 0.328125q0.078125 0.140625 0.109375 0.328125q0.046875 0.171875 0.078125 0.4375q0.03125 0.25 0.03125 0.625q0 0.390625 -0.03125 0.6875q-0.03125 0.296875 -0.125 0.484375q-0.078125 0.1875 -0.203125 0.265625q-0.109375 0.078125 -0.25 0.078125q-0.203125 0 -0.609375 -0.25q-0.390625 -0.265625 -1.03125 -0.546875q-0.625 -0.296875 -1.484375 -0.546875q-0.859375 -0.265625 -1.953125 -0.265625q-0.984375 0 -1.734375 0.21875q-0.75 0.21875 -1.234375 0.640625q-0.484375 0.40625 -0.734375 0.96875q-0.234375 0.5625 -0.234375 1.21875q0 0.90625 0.46875 1.53125q0.46875 0.625 1.21875 1.09375q0.75 0.46875 1.703125 0.84375q0.96875 0.375 1.953125 0.78125q1.0 0.390625 1.96875 0.890625q0.984375 0.484375 1.734375 1.1875q0.75 0.703125 1.203125 1.6875q0.453125 0.984375 0.453125 2.34375zm15.96875 4.1875q0 0.6875 -0.09375 1.09375q-0.09375 0.390625 -0.28125 0.578125q-0.1875 0.1875 -0.5625 0.359375q-0.375 0.15625 -0.859375 0.265625q-0.484375 0.109375 -1.03125 0.171875q-0.53125 0.078125 -1.0625 0.078125q-1.640625 0 -2.8125 -0.4375q-1.171875 -0.4375 -1.921875 -1.3125q-0.75 -0.890625 -1.09375 -2.234375q-0.34375 -1.34375 -0.34375 -3.171875l0 -12.328125l-2.953125 0q-0.34375 0 -0.5625 -0.375q-0.203125 -0.375 -0.203125 -1.21875q0 -0.453125 0.046875 -0.75q0.0625 -0.3125 0.15625 -0.5q0.09375 -0.203125 0.25 -0.28125q0.15625 -0.09375 0.34375 -0.09375l2.921875 0l0 -5.015625q0 -0.15625 0.078125 -0.296875q0.09375 -0.140625 0.3125 -0.25q0.21875 -0.109375 0.59375 -0.15625q0.375 -0.046875 0.9375 -0.046875q0.59375 0 0.96875 0.046875q0.375 0.046875 0.578125 0.15625q0.21875 0.109375 0.3125 0.25q0.09375 0.140625 0.09375 0.296875l0 5.015625l5.40625 0q0.1875 0 0.328125 0.09375q0.140625 0.078125 0.25 0.28125q0.109375 0.1875 0.15625 0.5q0.046875 0.296875 0.046875 0.75q0 0.84375 -0.21875 1.21875q-0.203125 0.375 -0.5625 0.375l-5.40625 0l0 11.765625q0 2.171875 0.640625 3.296875q0.640625 1.109375 2.3125 1.109375q0.53125 0 0.953125 -0.109375q0.421875 -0.109375 0.75 -0.21875q0.328125 -0.125 0.5625 -0.21875q0.234375 -0.109375 0.421875 -0.109375q0.125 0 0.21875 0.0625q0.109375 0.046875 0.171875 0.21875q0.0625 0.15625 0.109375 0.4375q0.046875 0.28125 0.046875 0.703125zm17.4375 -18.15625q0 0.515625 -0.03125 0.875q-0.015625 0.34375 -0.09375 0.546875q-0.0625 0.1875 -0.171875 0.296875q-0.109375 0.109375 -0.296875 0.109375q-0.1875 0 -0.453125 -0.109375q-0.265625 -0.109375 -0.609375 -0.203125q-0.34375 -0.109375 -0.765625 -0.203125q-0.421875 -0.09375 -0.90625 -0.09375q-0.59375 0 -1.15625 0.234375q-0.5625 0.234375 -1.1875 0.78125q-0.609375 0.53125 -1.296875 1.421875q-0.671875 0.890625 -1.5 2.171875l0 13.875q0 0.1875 -0.09375 0.328125q-0.09375 0.125 -0.3125 0.21875q-0.203125 0.09375 -0.578125 0.140625q-0.375 0.046875 -0.953125 0.046875q-0.5625 0 -0.9375 -0.046875q-0.375 -0.046875 -0.609375 -0.140625q-0.21875 -0.09375 -0.296875 -0.21875q-0.078125 -0.140625 -0.078125 -0.328125l0 -21.09375q0 -0.1875 0.0625 -0.3125q0.078125 -0.125 0.28125 -0.234375q0.21875 -0.109375 0.546875 -0.140625q0.328125 -0.03125 0.859375 -0.03125q0.515625 0 0.859375 0.03125q0.34375 0.03125 0.53125 0.140625q0.1875 0.109375 0.265625 0.234375q0.078125 0.125 0.078125 0.3125l0 3.078125q0.875 -1.265625 1.625 -2.0625q0.765625 -0.796875 1.4375 -1.25q0.6875 -0.46875 1.359375 -0.640625q0.671875 -0.171875 1.34375 -0.171875q0.3125 0 0.6875 0.03125q0.390625 0.03125 0.8125 0.125q0.421875 0.09375 0.765625 0.21875q0.34375 0.109375 0.484375 0.234375q0.140625 0.109375 0.1875 0.21875q0.046875 0.109375 0.078125 0.28125q0.03125 0.15625 0.046875 0.46875q0.015625 0.3125 0.015625 0.859375zm19.3125 19.734375q0 0.28125 -0.1875 0.421875q-0.1875 0.140625 -0.515625 0.203125q-0.328125 0.078125 -0.96875 0.078125q-0.609375 0 -0.96875 -0.078125q-0.359375 -0.0625 -0.53125 -0.203125q-0.15625 -0.140625 -0.15625 -0.421875l0 -2.109375q-1.390625 1.46875 -3.09375 2.296875q-1.6875 0.828125 -3.59375 0.828125q-1.65625 0 -3.015625 -0.4375q-1.34375 -0.4375 -2.296875 -1.25q-0.9375 -0.828125 -1.46875 -2.015625q-0.53125 -1.203125 -0.53125 -2.734375q0 -1.78125 0.71875 -3.09375q0.734375 -1.3125 2.09375 -2.171875q1.359375 -0.875 3.328125 -1.296875q1.96875 -0.4375 4.4375 -0.4375l2.90625 0l0 -1.640625q0 -1.21875 -0.265625 -2.15625q-0.25 -0.9375 -0.828125 -1.5625q-0.578125 -0.625 -1.5 -0.9375q-0.90625 -0.3125 -2.234375 -0.3125q-1.4375 0 -2.578125 0.34375q-1.125 0.328125 -1.984375 0.75q-0.859375 0.40625 -1.4375 0.75q-0.5625 0.328125 -0.84375 0.328125q-0.1875 0 -0.328125 -0.09375q-0.140625 -0.09375 -0.25 -0.28125q-0.109375 -0.1875 -0.15625 -0.46875q-0.046875 -0.296875 -0.046875 -0.65625q0 -0.578125 0.078125 -0.921875q0.09375 -0.34375 0.40625 -0.640625q0.3125 -0.3125 1.078125 -0.71875q0.78125 -0.40625 1.78125 -0.75q1.015625 -0.34375 2.203125 -0.5625q1.203125 -0.21875 2.421875 -0.21875q2.28125 0 3.875 0.515625q1.59375 0.515625 2.578125 1.515625q0.984375 0.984375 1.421875 2.46875q0.453125 1.46875 0.453125 3.4375l0 14.234375zm-3.84375 -9.640625l-3.3125 0q-1.59375 0 -2.765625 0.28125q-1.171875 0.265625 -1.953125 0.796875q-0.765625 0.515625 -1.125 1.265625q-0.359375 0.734375 -0.359375 1.6875q0 1.640625 1.03125 2.625q1.046875 0.96875 2.921875 0.96875q1.53125 0 2.828125 -0.765625q1.296875 -0.78125 2.734375 -2.375l0 -4.484375zm23.273438 -10.09375q0 0.515625 -0.03125 0.875q-0.015625 0.34375 -0.09375 0.546875q-0.0625 0.1875 -0.171875 0.296875q-0.109375 0.109375 -0.296875 0.109375q-0.1875 0 -0.453125 -0.109375q-0.265625 -0.109375 -0.609375 -0.203125q-0.34375 -0.109375 -0.765625 -0.203125q-0.421875 -0.09375 -0.90625 -0.09375q-0.59375 0 -1.15625 0.234375q-0.5625 0.234375 -1.1875 0.78125q-0.609375 0.53125 -1.296875 1.421875q-0.671875 0.890625 -1.5 2.171875l0 13.875q0 0.1875 -0.09375 0.328125q-0.09375 0.125 -0.3125 0.21875q-0.203125 0.09375 -0.578125 0.140625q-0.375 0.046875 -0.953125 0.046875q-0.5625 0 -0.9375 -0.046875q-0.375 -0.046875 -0.609375 -0.140625q-0.21875 -0.09375 -0.296875 -0.21875q-0.078125 -0.140625 -0.078125 -0.328125l0 -21.09375q0 -0.1875 0.0625 -0.3125q0.078125 -0.125 0.28125 -0.234375q0.21875 -0.109375 0.546875 -0.140625q0.328125 -0.03125 0.859375 -0.03125q0.515625 0 0.859375 0.03125q0.34375 0.03125 0.53125 0.140625q0.1875 0.109375 0.265625 0.234375q0.078125 0.125 0.078125 0.3125l0 3.078125q0.875 -1.265625 1.625 -2.0625q0.765625 -0.796875 1.4375 -1.25q0.6875 -0.46875 1.359375 -0.640625q0.671875 -0.171875 1.34375 -0.171875q0.3125 0 0.6875 0.03125q0.390625 0.03125 0.8125 0.125q0.421875 0.09375 0.765625 0.21875q0.34375 0.109375 0.484375 0.234375q0.140625 0.109375 0.1875 0.21875q0.046875 0.109375 0.078125 0.28125q0.03125 0.15625 0.046875 0.46875q0.015625 0.3125 0.015625 0.859375z" fill-rule="nonzero"/></g></svg>